Coordinates
version=1
nRows=11
nColumns=40
inDegrees=yes

Units are S.I. units (second, meters, Newtons, ...)
Angles are in degrees.

endheader
time	pelvis_tilt	pelvis_list	pelvis_rotation	pelvis_tx	pelvis_ty	pelvis_tz	hip_flexion_r	hip_adduction_r	hip_rotation_r	knee_angle_r	knee_angle_r_beta	ankle_angle_r	subtalar_angle_r	mtp_angle_r	hip_flexion_l	hip_adduction_l	hip_rotation_l	knee_angle_l	knee_angle_l_beta	ankle_angle_l	subtalar_angle_l	mtp_angle_l	lumbar_extension	lumbar_bending	lumbar_rotation	arm_flex_r	arm_add_r	arm_rot_r	elbow_flex_r	pro_sup_r	wrist_flex_r	wrist_dev_r	arm_flex_l	arm_add_l	arm_rot_l	elbow_flex_l	pro_sup_l	wrist_flex_l	wrist_dev_l
     12.83900000	     -6.02130930	     -3.95455718	      0.83127736	      1.04837974	      0.90525471	      0.37793304	     28.79846869	     -2.40838235	     -5.43112861	     66.51461089	     66.51461089	     12.06583154	    -18.43541965	      9.79378083	     27.39070705	     -2.32979300	      0.58040156	     36.33954900	     36.33954900	     17.43904492	    -17.12463020	      6.15689126	    -13.72351481	      3.22831575	      3.31576014	     10.77857988	    -12.40346217	      5.30744057	     29.22072957	     46.61195455	      0.00000000	      0.00000000	     24.83860986	    -12.02020524	     12.77684663	     42.75943257	     46.01081875	      0.00000000	      0.00000000
     12.86050000	     -5.75886226	     -3.86016510	      0.25889699	      1.04787515	      0.90211099	      0.37775971	     29.42512776	     -2.61561125	     -5.37731241	     66.49928679	     66.49928679	     12.70430083	    -18.87100642	     10.20352942	     27.61780071	     -2.21714706	      0.68027041	     37.94395914	     37.94395914	     18.19725291	    -18.03944092	      6.34941200	    -13.85414420	      3.21382706	      3.93993081	      7.82149799	    -13.21867458	      5.36867519	     27.26607352	     46.65993895	      0.00000000	      0.00000000	     26.30433374	    -11.42555813	     12.38023956	     44.78453268	     46.08742722	      0.00000000	      0.00000000
     12.88200000	     -5.53921142	     -3.78645565	     -0.38410039	      1.04719746	      0.89984522	      0.37815498	     30.10296832	     -2.73429841	     -5.09304030	     65.96188457	     65.96188457	     14.30987831	    -19.04525854	     13.41796619	     27.75562303	     -2.16483998	      0.75049158	     39.38012159	     39.38012159	     20.14824648	    -18.31785559	      9.79351947	    -14.07047215	      3.18387438	      3.76430366	      5.63776124	    -13.66570944	      4.90477841	     25.15092862	     46.74975096	      0.00000000	      0.00000000	     26.26816093	    -11.81422818	     11.21856432	     49.81408855	     46.25278672	      0.00000000	      0.00000000
     12.90350000	     -5.48769367	     -3.84124218	     -1.05785657	      1.04628344	      0.89827131	      0.37909861	     30.78055269	     -2.80326292	     -4.86045161	     64.63193957	     64.63193957	     15.27488677	    -19.17294327	     14.42116471	     27.83711935	     -2.40276864	      0.55403384	     40.28783244	     40.28783244	     21.09832834	    -18.54516847	     10.92884948	    -14.07495324	      3.26651997	      3.82220786	      3.28973566	    -14.27716398	      4.52705119	     23.99691328	     46.79373522	      0.00000000	      0.00000000	     26.81000100	    -11.81951664	     10.36221466	     53.23249956	     46.38342951	      0.00000000	      0.00000000
     12.92500000	     -5.57216720	     -3.94273172	     -1.75813505	      1.04502365	      0.89763947	      0.38067215	     31.46478117	     -2.76235969	     -4.45861449	     62.65478884	     62.65478884	     16.00971840	    -19.20934641	     14.53061682	     27.76797964	     -2.78965253	      0.24909574	     40.59258066	     40.59258066	     21.59097784	    -18.65330433	     11.29509048	    -14.02575020	      3.37370677	      4.02533791	      0.97060697	    -14.95468324	      4.20868038	     23.50521955	     46.80971937	      0.00000000	      0.00000000	     27.53513691	    -11.79605136	      9.79069383	     56.26072952	     46.48172268	      0.00000000	      0.00000000
     12.94650000	     -5.79459040	     -4.27282754	     -2.40936742	      1.04344054	      0.89793633	      0.38290568	     32.10047040	     -2.41482243	     -4.00326344	     60.04826750	     60.04826750	     16.42290951	    -19.18367931	     14.35361839	     27.69746871	     -3.48238226	     -0.02476686	     40.57741494	     40.57741494	     21.81104845	    -18.66512939	     11.39205344	    -13.87373292	      3.68741568	      4.23147890	     -1.07243539	    -15.59769713	      3.97042499	     23.18295692	     46.81781539	      0.00000000	      0.00000000	     28.40428620	    -11.73000072	      9.37429239	     58.77059071	     46.55890298	      0.00000000	      0.00000000
     12.96800000	     -6.14103987	     -4.57522590	     -3.02964650	      1.04161552	      0.89906145	      0.38562985	     32.65565263	     -2.06400354	     -3.38136639	     56.87578962	     56.87578962	     15.95962313	    -19.05326399	     12.26903005	     27.50976262	     -4.19331439	     -0.36121370	     40.06386332	     40.06386332	     21.75222326	    -18.63967439	     11.14109488	    -13.72215280	      3.96682582	      3.70879231	     -3.10112623	    -16.13851827	      2.85937117	     25.18273451	     46.77044377	      0.00000000	      0.00000000	     28.09660186	    -12.57016703	      8.59730973	     63.77059324	     46.70118257	      0.00000000	      0.00000000
     12.98950000	     -6.68115800	     -4.95171298	     -3.56127404	      1.03939116	      0.90089059	      0.38896823	     33.26531947	     -1.50153377	     -2.51208440	     53.41080048	     53.41080048	     15.83722318	    -18.60718656	     12.24408358	     27.37294558	     -5.00898664	     -0.63877251	     39.19166449	     39.19166449	     21.59290557	    -18.52697830	     11.26912311	    -13.25164960	      4.29525356	      3.50273522	     -4.27120294	    -16.45056035	      2.75756059	     24.99198368	     46.77212161	      0.00000000	      0.00000000	     29.17069966	    -12.76728951	      8.35411876	     64.90459535	     46.74568345	      0.00000000	      0.00000000
     13.01100000	     -7.24731955	     -5.38771736	     -4.04940707	      1.03704601	      0.90327203	      0.39283460	     33.64896300	     -0.90644257	     -1.60269693	     49.62209714	     49.62209714	     15.41567720	    -17.54533265	     12.06121924	     27.14830748	     -5.91521444	     -0.89475011	     38.08934149	     38.08934149	     21.30510377	    -18.30329097	     11.33832233	    -12.84332842	      4.68467018	      3.48380924	     -5.34482098	    -16.63318703	      2.61246602	     25.09403978	     46.76465346	      0.00000000	      0.00000000	     30.19777214	    -12.87821721	      8.14960424	     66.49011792	     46.79410867	      0.00000000	      0.00000000
     13.03250000	     -7.50228050	     -5.85665762	     -4.38975475	      1.03505696	      0.90609798	      0.39692369	     33.01397037	     -0.55016112	     -1.02038028	     44.72363076	     44.72363076	     11.35941532	    -16.84741000	      1.10364493	     26.38352132	     -6.91904565	     -1.37846389	     36.56629153	     36.56629153	     19.67369327	    -18.19365743	      7.62175463	    -13.09881857	      5.08808377	      3.47197795	     -8.14566230	    -17.07817053	      0.54855595	     30.78139717	     46.55182674	      0.00000000	      0.00000000	     29.68987903	    -13.45497043	      7.68517720	     73.13307069	     46.99259735	      0.00000000	      0.00000000
     13.05400000	     -7.92947809	     -6.19527629	     -4.61474668	      1.03285768	      0.90877055	      0.40138115	     32.76258536	     -0.33101295	     -0.39165253	     40.62752778	     40.62752778	     10.41069743	    -13.99937764	     -0.28406894	     25.87696007	     -7.70819038	     -1.65398491	     35.15365722	     35.15365722	     19.01919359	    -17.86291418	      6.82823335	    -12.94424375	      5.34392125	      3.22502800	     -9.16881762	    -17.05466052	     -0.04339789	     32.62317908	     46.47053985	      0.00000000	      0.00000000	     30.13876110	    -14.08766006	      7.93997577	     76.57713858	     47.06595012	      0.00000000	      0.00000000
